# xmcd CD database file
#
# Track frame offsets:
#	180
#	17428
#	29137
#	32890
#	38242
#	40056
#	58371
#	65413
#	81273
#	98952
#	118560
#	123343
#	131511
#	138257
#	145550
#	157180
#	206990
#	220280
#	237249
#	250184
#
# Disc length: 3687 seconds
#
# Revision: 0
# Processed by: cddbd v1.5.1PL0 Copyright (c) Steve Scherf et al.
# Submitted via: CDex 1.51
#
DISCID=290e6514
DTITLE=Jacques Burtin -  Le Chant Intérieur
DYEAR=1994
DGENRE=New Age
TTITLE0=Ballade de l'île d'Yeu
TTITLE1=Voyageurs sur la terre - Chant 1
TTITLE2=Voyageurs sur la terre - Interlude 1
TTITLE3=Voyageurs sur la terre - Chant 2
TTITLE4=Voyageurs sur la terre - Interlude 2
TTITLE5=Voyageurs sur la terre - Chant 3
TTITLE6=Voyageurs sur la terre - Finale
TTITLE7=Les Transparences
TTITLE8=Icône de la joie de Marie
TTITLE9=Danse de la nuit
TTITLE10=L'Abbaye sous le neige - Eveil
TTITLE11=L'Abbaye sous le neige - Appel
TTITLE12=L'Abbaye sous le neige - Egalité d'âme
TTITLE13=L'Abbaye sous le neige - Ecoute
TTITLE14=L'Abbaye sous le neige -  Gratitude
TTITLE15=A l'ami lointain
TTITLE16=Vive la flamme d'amour - Rien, rien, rien
TTITLE17=Vive la flamme d'amour - Les Flambeaux
TTITLE18=Vive la flamme d'amour - Seul, en secret
TTITLE19=Vive la flamme d'amour -  Achève si tu le veux
EXTD=YEAR: 1994
EXTT0=
EXTT1=
EXTT2=
EXTT3=
EXTT4=
EXTT5=
EXTT6=
EXTT7=
EXTT8=
EXTT9=
EXTT10=
EXTT11=
EXTT12=
EXTT13=
EXTT14=
EXTT15=
EXTT16=
EXTT17=
EXTT18=
EXTT19=
PLAYORDER=
